<svg width="841" height="232" viewBox="0 0 841 232" fill="none" xmlns="http://www.w3.org/2000/svg">
<path d="M535.135 218.972H548.231V142.24H522.374V166.25H512.132V133.341H597.427V166.25H587.185V142.24H561.831V218.972H574.928V227.871H535.135V218.972Z" fill="#FED330"/>
<path d="M673.251 197.48H618.85C619.634 204.532 622.152 210.129 626.406 214.271C630.659 218.3 636.088 220.315 642.692 220.315C651.871 220.315 660.21 216.789 667.71 209.737L672.076 217.293C668.829 221.099 664.744 224.177 659.819 226.528C654.893 228.766 649.353 229.886 643.196 229.886C636.256 229.886 629.932 228.431 624.223 225.52C618.514 222.61 614.037 218.524 610.791 213.263C607.545 207.89 605.922 201.79 605.922 194.962C605.922 188.022 607.433 181.921 610.455 176.66C613.589 171.287 617.787 167.202 623.048 164.403C628.421 161.493 634.353 160.038 640.846 160.038C650.92 160.038 658.811 163.116 664.52 169.273C670.34 175.429 673.251 183.768 673.251 194.29V197.48ZM660.994 189.757C660.994 183.377 659.091 178.339 655.285 174.646C651.591 170.952 646.778 169.105 640.846 169.105C635.025 169.105 630.1 170.952 626.07 174.646C622.04 178.339 619.634 183.377 618.85 189.757H660.994Z" fill="#FED330"/>
<path d="M720.925 169.776C713.761 169.776 707.884 172.071 703.295 176.66C698.706 181.25 696.411 187.07 696.411 194.122C696.411 201.734 698.65 207.946 703.127 212.76C707.605 217.461 713.425 219.812 720.589 219.812C725.962 219.812 730.495 218.804 734.189 216.789C737.883 214.662 741.465 211.64 744.935 207.722L750.14 215.278C746.67 219.756 742.361 223.282 737.211 225.856C732.062 228.319 726.13 229.55 719.414 229.55C712.474 229.55 706.261 228.039 700.776 225.017C695.404 221.994 691.15 217.853 688.016 212.592C684.994 207.219 683.482 201.174 683.482 194.458C683.482 187.742 684.938 181.809 687.848 176.66C690.87 171.399 695.012 167.314 700.273 164.403C705.534 161.493 711.466 160.038 718.07 160.038C722.996 160.038 727.361 160.933 731.167 162.724C734.973 164.515 737.883 166.922 739.898 169.944V161.549H750.308V185.223H740.905C739.898 180.41 737.603 176.66 734.021 173.974C730.439 171.176 726.074 169.776 720.925 169.776Z" fill="#FED330"/>
<path d="M840.989 218.972V227.871H805.561V218.972H816.475V184.552C816.475 179.962 815.356 176.381 813.117 173.806C810.99 171.232 807.968 169.944 804.05 169.944C797.334 169.944 790.058 172.519 782.223 177.668V218.972H792.968V227.871H757.541V218.972H769.798V140.393H757.709V131.662H782.223V169.273C791.289 163.228 799.573 160.206 807.072 160.206C813.341 160.206 818.546 162.165 822.687 166.082C826.829 169.888 828.9 175.261 828.9 182.201V218.972H840.989Z" fill="#FED330"/>
<path d="M0 218.972H12.089L39.4573 142.24H28.8794V133.341H75.0527V142.24H64.139L92.3468 218.972H103.764V227.871H65.3144V218.972H77.9071L68.3366 191.436H34.0844L24.6818 218.972H37.2745V227.871H0V218.972ZM65.6502 182.537L51.8821 142.408H50.8747L36.7708 182.537H65.6502Z" fill="#FED330"/>
<path d="M152.088 189.589C157.237 190.82 161.322 192.163 164.344 193.619C167.479 194.962 169.997 196.977 171.9 199.663C173.803 202.35 174.754 205.932 174.754 210.409C174.754 216.677 172.292 221.435 167.367 224.681C162.442 227.927 156.509 229.55 149.569 229.55C145.315 229.55 141.286 228.878 137.48 227.535C133.674 226.192 130.652 224.401 128.413 222.162V227.871H118.675V205.036H127.406L128.077 212.256C129.98 215.054 132.723 217.237 136.305 218.804C139.999 220.259 143.86 220.987 147.89 220.987C152.255 220.987 155.837 220.147 158.636 218.468C161.434 216.677 162.833 214.327 162.833 211.416C162.833 208.058 161.77 205.652 159.643 204.197C157.516 202.741 153.543 201.398 147.722 200.167L138.487 198.152C131.659 196.473 126.622 194.29 123.376 191.604C120.13 188.805 118.507 184.496 118.507 178.675C118.507 172.967 120.746 168.489 125.223 165.243C129.812 161.885 135.689 160.206 142.853 160.206C146.323 160.206 149.849 160.766 153.431 161.885C157.125 163.004 160.035 164.571 162.162 166.586V161.549H172.068V184.216H163.337L162.162 175.989C160.483 173.974 157.964 172.351 154.606 171.12C151.36 169.776 148.114 169.105 144.868 169.105C140.95 169.105 137.648 169.888 134.961 171.455C132.275 173.022 130.932 175.317 130.932 178.339C130.932 180.802 131.883 182.705 133.786 184.048C135.689 185.391 138.935 186.623 143.524 187.742L152.088 189.589ZM126.063 208.058C126.063 208.282 126.118 208.45 126.23 208.562L126.063 208.058Z" fill="#FED330"/>
<path d="M224.561 189.589C229.71 190.82 233.796 192.163 236.818 193.619C239.952 194.962 242.471 196.977 244.374 199.663C246.277 202.35 247.228 205.932 247.228 210.409C247.228 216.677 244.766 221.435 239.841 224.681C234.915 227.927 228.983 229.55 222.043 229.55C217.789 229.55 213.76 228.878 209.954 227.535C206.148 226.192 203.126 224.401 200.887 222.162V227.871H191.149V205.036H199.88L200.551 212.256C202.454 215.054 205.197 217.237 208.778 218.804C212.472 220.259 216.334 220.987 220.364 220.987C224.729 220.987 228.311 220.147 231.11 218.468C233.908 216.677 235.307 214.327 235.307 211.416C235.307 208.058 234.244 205.652 232.117 204.197C229.99 202.741 226.017 201.398 220.196 200.167L210.961 198.152C204.133 196.473 199.096 194.29 195.85 191.604C192.604 188.805 190.981 184.496 190.981 178.675C190.981 172.967 193.219 168.489 197.697 165.243C202.286 161.885 208.163 160.206 215.327 160.206C218.797 160.206 222.323 160.766 225.905 161.885C229.598 163.004 232.509 164.571 234.636 166.586V161.549H244.542V184.216H235.811L234.636 175.989C232.957 173.974 230.438 172.351 227.08 171.12C223.834 169.776 220.588 169.105 217.342 169.105C213.424 169.105 210.122 169.888 207.435 171.455C204.749 173.022 203.406 175.317 203.406 178.339C203.406 180.802 204.357 182.705 206.26 184.048C208.163 185.391 211.409 186.623 215.998 187.742L224.561 189.589ZM198.536 208.058C198.536 208.282 198.592 208.45 198.704 208.562L198.536 208.058Z" fill="#FED330"/>
<path d="M274.536 147.445C271.962 147.445 269.779 146.662 267.988 145.095C266.309 143.416 265.469 141.345 265.469 138.882C265.469 136.42 266.309 134.405 267.988 132.838C269.779 131.159 271.962 130.319 274.536 130.319C277.111 130.319 279.237 131.159 280.917 132.838C282.707 134.405 283.603 136.42 283.603 138.882C283.603 141.345 282.707 143.416 280.917 145.095C279.237 146.662 277.111 147.445 274.536 147.445ZM257.242 218.972H270.003V170.784H257.41V161.885H282.26V218.972H294.181V227.871H257.242V218.972Z" fill="#FED330"/>
<path d="M341.798 189.589C346.948 190.82 351.033 192.163 354.055 193.619C357.19 194.962 359.708 196.977 361.611 199.663C363.514 202.35 364.465 205.932 364.465 210.409C364.465 216.677 362.003 221.435 357.078 224.681C352.152 227.927 346.22 229.55 339.28 229.55C335.026 229.55 330.997 228.878 327.191 227.535C323.385 226.192 320.363 224.401 318.124 222.162V227.871H308.386V205.036H317.117L317.788 212.256C319.691 215.054 322.434 217.237 326.016 218.804C329.709 220.259 333.571 220.987 337.601 220.987C341.966 220.987 345.548 220.147 348.347 218.468C351.145 216.677 352.544 214.327 352.544 211.416C352.544 208.058 351.481 205.652 349.354 204.197C347.227 202.741 343.254 201.398 337.433 200.167L328.198 198.152C321.37 196.473 316.333 194.29 313.087 191.604C309.841 188.805 308.218 184.496 308.218 178.675C308.218 172.967 310.457 168.489 314.934 165.243C319.523 161.885 325.4 160.206 332.564 160.206C336.034 160.206 339.56 160.766 343.142 161.885C346.836 163.004 349.746 164.571 351.873 166.586V161.549H361.779V184.216H353.048L351.873 175.989C350.194 173.974 347.675 172.351 344.317 171.12C341.071 169.776 337.825 169.105 334.579 169.105C330.661 169.105 327.359 169.888 324.672 171.455C321.986 173.022 320.643 175.317 320.643 178.339C320.643 180.802 321.594 182.705 323.497 184.048C325.4 185.391 328.646 186.623 333.235 187.742L341.798 189.589ZM315.773 208.058C315.773 208.282 315.829 208.45 315.941 208.562L315.773 208.058Z" fill="#FED330"/>
<path d="M428 0V49.8063C450.677 49.8063 469.127 66.9236 469.127 87.972C469.127 109.016 450.677 126.138 428 126.138V232L503.278 144.171C516.793 128.308 523.939 109.245 523.939 89.0311C523.939 39.9404 480.9 0 428 0Z" fill="#EB3B5A"/>
<path d="M386.874 87.972C386.874 66.9236 405.324 49.8063 428 49.8063V0C375.101 0 332.062 39.9404 332.062 89.0311C332.062 109.245 339.208 128.308 352.743 144.19L428 232V126.138C405.324 126.138 386.874 109.016 386.874 87.972Z" fill="#FC5C65"/>
</svg>
